<?xml version="1.0" encoding="utf-8"?>
<!-- Generator: Adobe Illustrator 24.1.2, SVG Export Plug-In . SVG Version: 6.00 Build 0)  -->
<svg version="1.1" id="Layer_1" xmlns="http://www.w3.org/2000/svg" xmlns:xlink="http://www.w3.org/1999/xlink" x="0px" y="0px"
	 viewBox="0 0 86 86" style="enable-background:new 0 0 86 86;" xml:space="preserve">
<style type="text/css">
	.st0{fill-rule:evenodd;clip-rule:evenodd;fill:#FFFFFF;}
</style>
<g>
	<g>
		<path class="st0" d="M2.53,52.9L2.53,52.9L2.53,52.9L2.53,52.9z M64.02,47.73H53.77v25.65h10.25c2.83,0,5.12-2.3,5.12-5.13V52.86
			C69.14,50.03,66.85,47.73,64.02,47.73z M17.9,52.86v15.39c0,2.83,2.29,5.13,5.12,5.13H51.2V47.73H23.02
			C20.19,47.73,17.9,50.03,17.9,52.86z M34.17,34.91h11.86l-5.93-5.93L34.17,34.91z M84.52,32.39L74.17,22.04
			c-2.42,1.47-5.96,0.87-8.44-1.61c-2.48-2.48-3.08-6.01-1.61-8.44L53.77,1.64L20.51,34.91h10.25l7.64-7.64l0,0l0.57-0.57l9.68-9.68
			c1.89-1.89,4.95-1.89,6.83,0l13.67,13.67c1.15,1.15,1.59,2.73,1.34,4.22h6.35v2.57H5.09v15.54c2.92,0.71,5.12,3.82,5.12,7.54
			c0,3.72-2.2,6.83-5.12,7.54v15.54h28.18l0,0l0,0h48.68V68.1c-2.92-0.71-5.12-3.82-5.12-7.54s2.2-6.83,5.12-7.54V37.47h-2.51
			L84.52,32.39z M71.71,70.82c0,2.83-2.29,5.13-5.12,5.13H53.77h-2.56H20.46c-2.83,0-5.12-2.3-5.12-5.13V50.3
			c0-2.83,2.29-5.13,5.12-5.13h30.75h2.56h12.81c2.83,0,5.12,2.3,5.12,5.13L71.71,70.82L71.71,70.82z M67.07,34.91
			c0.25-1.49-0.19-3.07-1.34-4.22L55.48,20.43c-1.89-1.89-4.95-1.89-6.83,0l-6.83,6.83l7.64,7.64L67.07,34.91L67.07,34.91z"/>
	</g>
</g>
</svg>
