<?xml version="1.0" encoding="utf-8"?>
<!-- Generator: Adobe Illustrator 24.1.2, SVG Export Plug-In . SVG Version: 6.00 Build 0)  -->
<svg version="1.1" id="Layer_1" xmlns="http://www.w3.org/2000/svg" xmlns:xlink="http://www.w3.org/1999/xlink" x="0px" y="0px"
	 viewBox="0 0 86 86" style="enable-background:new 0 0 86 86;" xml:space="preserve">
<style type="text/css">
	.st0{fill-rule:evenodd;clip-rule:evenodd;fill:#FFFFFF;}
</style>
<g>
	<g>
		<path class="st0" d="M75.77,28.39H59.15v7.12h11.88v38H59.15h-38h-7.13v2.37c0,2.62,2.13,4.75,4.75,4.75h57
			c2.62,0,4.75-2.13,4.75-4.75V33.14C80.52,30.52,78.4,28.39,75.77,28.39z M75.77,56.89c-1.31,0-2.38-1.06-2.38-2.37
			c0-1.31,1.06-2.37,2.38-2.37c1.31,0,2.37,1.06,2.37,2.37C78.15,55.83,77.08,56.89,75.77,56.89z M56.77,66.39v-57
			c0-2.62-2.13-4.75-4.75-4.75H9.27c-2.62,0-4.75,2.13-4.75,4.75v57c0,2.62,2.13,4.75,4.75,4.75h42.75
			C54.65,71.14,56.77,69.01,56.77,66.39z M30.65,68.77c-1.31,0-2.38-1.06-2.38-2.37c0-1.31,1.06-2.38,2.38-2.38
			c1.31,0,2.37,1.06,2.37,2.38C33.02,67.7,31.96,68.77,30.65,68.77z M49.65,61.64h-38V11.77h38V61.64z"/>
	</g>
</g>
</svg>
