<?xml version="1.0" encoding="utf-8"?>
<!-- Generator: Adobe Illustrator 24.1.2, SVG Export Plug-In . SVG Version: 6.00 Build 0)  -->
<svg version="1.1" id="Layer_1" xmlns="http://www.w3.org/2000/svg" xmlns:xlink="http://www.w3.org/1999/xlink" x="0px" y="0px"
	 viewBox="0 0 86 86" style="enable-background:new 0 0 86 86;" xml:space="preserve">
<style type="text/css">
	.st0{fill-rule:evenodd;clip-rule:evenodd;fill:#FFFFFF;}
</style>
<g>
	<g>
		<path class="st0" d="M75.18,34.46c-0.49,0-0.96,0.05-1.43,0.11v-0.11h-5.72v-8.61H67.9c-0.8,4.87-5.55,8.61-11.31,8.61
			c-3.94,0-7.41-1.75-9.47-4.41c-1.73,2.59-5.8,4.41-10.56,4.41c-5.64,0-10.32-2.56-11.26-5.93c-0.52,0.12-1.06,0.19-1.61,0.19
			c-2.34,0-4.41-1.13-5.71-2.87h-1.44v51.68h0.14c-0.09,0.46-0.14,0.94-0.14,1.44c0,3.96,3.2,7.18,7.15,7.18h37.2
			c3.95,0,7.15-3.21,7.15-7.18c0-0.49-0.05-0.97-0.14-1.44h0.14v-2.87h5.72v-0.11c0.47,0.07,0.94,0.11,1.43,0.11
			c5.53,0,10.01-4.5,10.01-10.05v-20.1C85.19,38.96,80.71,34.46,75.18,34.46z M30.83,71.78h-5.72V40.2h5.72V71.78z M45.13,71.78
			h-5.72V40.2h5.72V71.78z M59.44,71.78h-5.72V40.2h5.72V71.78z M79.47,60.3c0,3.17-2.56,5.74-5.72,5.74h-5.72V60.3V48.81v-5.74
			h5.72c3.16,0,5.72,2.57,5.72,5.74V60.3z M23.67,22.97c0.56,0,1.09-0.07,1.61-0.19c0.94,3.37,5.62,5.93,11.26,5.93
			c4.76,0,8.84-1.83,10.57-4.42c2.05,2.66,5.52,4.42,9.46,4.42c6.32,0,11.44-4.5,11.44-10.05S62.89,8.61,56.57,8.61
			c-2.13,0-4.12,0.52-5.82,1.41C50.04,4.37,45.24,0,39.41,0c-5.86,0-10.69,4.42-11.36,10.13c-1.21-0.94-2.73-1.51-4.38-1.51
			c-3.95,0-7.15,3.21-7.15,7.18C16.52,19.76,19.72,22.97,23.67,22.97z"/>
	</g>
</g>
</svg>
