<?xml version="1.0" encoding="utf-8"?>
<!-- Generator: Adobe Illustrator 24.1.2, SVG Export Plug-In . SVG Version: 6.00 Build 0)  -->
<svg version="1.1" id="Layer_1" xmlns="http://www.w3.org/2000/svg" xmlns:xlink="http://www.w3.org/1999/xlink" x="0px" y="0px"
	 viewBox="0 0 86 86" style="enable-background:new 0 0 86 86;" xml:space="preserve">
<style type="text/css">
	.st0{fill-rule:evenodd;clip-rule:evenodd;fill:#FFFFFF;}
</style>
<g>
	<g>
		<path class="st0" d="M75.02,17.64H57.43c0.05-0.27,0.09-0.54,0.09-0.83v-5.83c0-1.84-1.12-3.33-2.5-3.33h-25
			c-1.38,0-2.5,1.49-2.5,3.33v5.83c0,0.29,0.04,0.57,0.09,0.83H10.02c-4.14,0-7.5,3.36-7.5,7.5v45c0,4.14,3.36,7.5,7.5,7.5h65
			c4.14,0,7.5-3.36,7.5-7.5v-45C82.52,21,79.16,17.64,75.02,17.64z M32.52,12.64h20v2.5h-20V12.64z M42.52,70.14
			c-12.43,0-22.5-10.07-22.5-22.5s10.07-22.5,22.5-22.5s22.5,10.07,22.5,22.5C65.02,60.07,54.95,70.14,42.52,70.14z M42.52,32.64
			c-8.28,0-15,6.72-15,15s6.72,15,15,15s15-6.72,15-15S50.81,32.64,42.52,32.64z M42.52,52.64c-2.76,0-5-2.24-5-5s2.24-5,5-5
			s5,2.24,5,5C47.52,50.4,45.28,52.64,42.52,52.64z"/>
	</g>
</g>
</svg>
